<svg xmlns="http://www.w3.org/2000/svg" xmlns:xlink="http://www.w3.org/1999/xlink" width="59.248" height="59.248" viewBox="0 0 59.248 59.248"><defs><style>.a{fill:#2196f3;}.b{fill:#fafafa;}.c{filter:url(#a);}</style><filter id="a" x="0" y="0" width="59.248" height="59.248" filterUnits="userSpaceOnUse"><feOffset dy="3" input="SourceAlpha"/><feGaussianBlur stdDeviation="3" result="b"/><feFlood flood-color="#2196f3" flood-opacity="0.161"/><feComposite operator="in" in2="b"/><feComposite in="SourceGraphic"/></filter></defs><g transform="translate(18.192 6) rotate(16)"><g class="c" transform="matrix(0.96, -0.28, 0.28, 0.96, -19.14, -0.75)"><path class="a" d="M3.474,0h26.4a3.474,3.474,0,0,1,3.474,3.474v26.4a3.474,3.474,0,0,1-3.474,3.474H3.474A3.474,3.474,0,0,1,0,29.874V3.474A3.474,3.474,0,0,1,3.474,0Z" transform="translate(18.19 6) rotate(16)"/></g><path class="b" d="M225.144,69.558h2.779a.7.7,0,0,0,.695-.695V64.695a.7.7,0,0,0-.695-.695h-2.779a7.642,7.642,0,0,0-7.642,7.642v3.474h-3.474a.7.7,0,0,0-.695.695v4.169a.7.7,0,0,0,.695.695H217.5V93.18h5.558V80.674h3.474a.7.7,0,0,0,.659-.475l1.389-4.169a.695.695,0,0,0-.659-.914H223.06V71.642A2.084,2.084,0,0,1,225.144,69.558Z" transform="translate(-199.438 -59.831)"/></g></svg>